<?xml version="1.0" encoding="UTF-8"?>
<!DOCTYPE svg PUBLIC "-//W3C//DTD SVG 1.1//EN" "http://www.w3.org/Graphics/SVG/1.1/DTD/svg11.dtd">
<!-- Creator: CorelDRAW 2019 (64 Bit) -->
<svg xmlns="http://www.w3.org/2000/svg" xml:space="preserve" width="5mm" height="5mm" version="1.1" style="shape-rendering:geometricPrecision; text-rendering:geometricPrecision; image-rendering:optimizeQuality; fill-rule:evenodd; clip-rule:evenodd"
viewBox="0 0 500 500"
 xmlns:xlink="http://www.w3.org/1999/xlink"
 xmlns:xodm="http://www.corel.com/coreldraw/odm/2003">
 <defs>
  <style type="text/css">
   <![CDATA[
    .fil0 {fill:black}
   ]]>
  </style>
 </defs>
 <g id="Camada_x0020_1">
  <metadata id="CorelCorpID_0Corel-Layer"/>
  <g id="_2632975150608">
   <path class="fil0" d="M133.29 292.9c-5.77,-3.91 -2.16,1.82 -5.15,-8.67l-31.53 -155.94 371.09 0.15c-1.31,19.09 -23.31,112.57 -29.72,146.77 -2.42,12.93 -1.79,16.18 -7.06,17.68l-297.63 0.01zm-133.49 -258.89l0 8.31c14.71,14.88 55.8,24.56 60.11,30.23l58.62 282.46c7.15,27.59 35.52,20.47 65.1,20.47 47.57,0 236.3,3.17 256.57,-2.15 14.74,-31.26 -28.67,-22.09 -70.55,-22.09l-227.6 0 -6.79 -34.56c90.08,-0.08 179.74,-0.09 269.4,-0.08 57.78,0.01 48.93,1.66 64.05,-72.16 3.56,-17.39 18.75,-101.87 23.49,-111.05l0 -11.28c-9.15,-13.99 -13.26,-17.78 -34.93,-17.69l-366.32 0.05c-8.79,-59.26 -8.98,-48.23 -60.11,-71.01 -15.25,-6.8 -18.78,-11.85 -31.04,0.55z"/>
   <path class="fil0" d="M200.01 421.27c23.64,-11.06 35.64,24.84 13.6,34.59 -20.8,9.21 -41.04,-21.75 -13.6,-34.59zm-1.23 -25.01c-59.02,12.39 -38.59,95.99 17.5,84.13 53.79,-11.37 36.23,-95.41 -17.5,-84.13z"/>
   <path class="fil0" d="M187.58 189.38c30.95,4.27 136.97,1.75 175.5,1.71 7.73,0 10.41,-0.77 15.59,-3.43l1.17 -16.8c-15.12,-7.19 -132.01,-3.41 -165.58,-3.59 -21.61,-0.11 -38.34,-0.99 -26.68,22.11z"/>
   <path class="fil0" d="M352.07 420.54c24.34,-8.25 35.54,28.08 13.07,35.75 -23.78,8.11 -38.43,-27.16 -13.07,-35.75zm-1.84 -24.04c-54.76,10.44 -41.99,94.84 17.01,83.95 20.5,-3.78 38.64,-25.47 32.71,-52.12 -4.52,-20.28 -24.12,-36.72 -49.72,-31.83z"/>
   <path class="fil0" d="M195.77 251.51c31.58,5.59 120.94,2.3 158.56,2.24 18.51,0 18.83,-8.66 14,-21.39 -31.12,-5.91 -121.17,-2.24 -158.44,-2.19 -18.27,0 -18.69,7.42 -14.12,21.34z"/>
  </g>
 </g>
</svg>
