<?xml version="1.0" encoding="UTF-8"?>
<!DOCTYPE svg PUBLIC "-//W3C//DTD SVG 1.1//EN" "http://www.w3.org/Graphics/SVG/1.1/DTD/svg11.dtd">
<!-- Creator: CorelDRAW 2019 (64 Bit) -->
<svg xmlns="http://www.w3.org/2000/svg" xml:space="preserve" width="5mm" height="5mm" version="1.1" style="shape-rendering:geometricPrecision; text-rendering:geometricPrecision; image-rendering:optimizeQuality; fill-rule:evenodd; clip-rule:evenodd"
viewBox="0 0 500 500"
 xmlns:xlink="http://www.w3.org/1999/xlink"
 xmlns:xodm="http://www.corel.com/coreldraw/odm/2003">
 <defs>
  <style type="text/css">
   <![CDATA[
    .fil0 {fill:black}
   ]]>
  </style>
 </defs>
 <g id="Camada_x0020_1">
  <metadata id="CorelCorpID_0Corel-Layer"/>
  <path class="fil0" d="M314.95 184.66c-17.54,197.85 -289.25,170.82 -285.05,-8.87 1.8,-77.16 69.21,-141.46 146.88,-138.07 74.7,3.26 145.08,68.99 138.17,146.94zm35.03 164.24c0.8,5.4 50.85,53.03 58.58,60.76 9.96,9.95 19.9,19.92 29.85,29.87 4.92,4.92 10.06,9.84 14.88,14.83 7.38,7.65 16.9,6.3 15.61,-2.97 -0.69,-4.96 -50.88,-52.9 -58.58,-60.62 -9.93,-9.97 -19.9,-19.9 -29.85,-29.85 -4.96,-4.96 -9.9,-9.93 -14.87,-14.87 -7.08,-7.05 -17.08,-7 -15.62,2.85zm-33.72 -2.08c-7.02,13.53 -10.2,14.35 3.12,27.6l105.27 105.27c23.56,23.62 24.18,26.58 48.47,1.36 24.08,-25.01 24.1,-23.34 -1.13,-48.46l-105.38 -105.39c-3.66,-3.64 -7.21,-7.78 -12.43,-8.7 -9.82,-1.73 -10.45,3.54 -15.29,5.59 -6.56,-5.09 -16.58,-16.47 -22.97,-22.81 -14.75,-14.66 -11.63,-8.25 -0.33,-25.09 13.25,-19.75 22.13,-42.03 26.39,-65.17 9.26,-50.38 -4.94,-102.35 -37.17,-141.02 -65.3,-78.31 -182.6,-82.62 -254.36,-11.33 -71.29,70.84 -66.05,190.07 12.23,254.39 38.61,31.72 91.02,46.46 141.03,36.63 24.27,-4.77 44.72,-12.9 65.07,-26.55 16.83,-11.3 9.92,-14.17 24.68,0.6 2.67,2.68 22.35,21.91 22.8,23.08zm-150.99 -289.87c-28.3,2.91 -49.67,9.86 -71.7,28.18 -22.91,19.05 -3.16,25.54 3.49,19.19 8.88,-8.49 18.5,-15.63 29.26,-20.68 25.97,-12.19 55.99,-14 83.07,-3.86 14.82,5.55 24.92,-9.87 0.25,-17.39 -13.16,-4.02 -30.55,-6.85 -44.37,-5.44zm112.49 71.84c-12.61,2.17 -2.11,21.44 -0.46,29.57 2.08,10.22 -0.99,32.41 12.22,29.99 14.39,-2.63 4.03,-62.28 -11.76,-59.56z"/>
 </g>
</svg>
